<?xml version="1.0" encoding="utf-8"?>
<!-- Generator: Adobe Illustrator 24.3.0, SVG Export Plug-In . SVG Version: 6.00 Build 0)  -->
<svg version="1.1" id="Слой_1" xmlns="http://www.w3.org/2000/svg" xmlns:xlink="http://www.w3.org/1999/xlink" x="0px" y="0px"
	 viewBox="0 0 24 24" style="enable-background:new 0 0 24 24;" xml:space="preserve">
<style type="text/css">
	.st0{fill:#9197B3;}
</style>
<path class="st0" d="M7.2,22.8c-2.4,0-4.3-1.7-4.3-3.9v-2c0-0.4,0.3-0.8,0.8-0.8s0.8,0.3,0.8,0.8c0,1.2,1.2,2.2,2.8,2.2
	c1.6,0,2.8-0.9,2.8-2.2c0-0.4,0.3-0.8,0.8-0.8s0.8,0.3,0.8,0.8v2C11.5,21,9.6,22.8,7.2,22.8z M4.6,19.9c0.4,0.8,1.4,1.4,2.6,1.4
	c1.1,0,2.1-0.6,2.6-1.4c-0.7,0.4-1.6,0.7-2.6,0.7C6.2,20.6,5.3,20.3,4.6,19.9z"/>
<path class="st0" d="M7.2,17.8c-1.6,0-3.1-0.7-3.8-1.9c-0.3-0.5-0.5-1.1-0.5-1.8c0-1,0.5-2,1.3-2.8c1.6-1.4,4.4-1.4,6,0
	c0.8,0.7,1.3,1.7,1.3,2.8c0,0.6-0.2,1.2-0.5,1.7C10.3,17.1,8.8,17.8,7.2,17.8z M7.2,11.8c-0.8,0-1.5,0.3-2,0.7
	c-0.5,0.4-0.8,1-0.8,1.6c0,0.3,0.1,0.7,0.3,1c0.5,0.7,1.4,1.2,2.6,1.2c1.1,0,2.1-0.5,2.6-1.2c0.2-0.3,0.3-0.6,0.3-1
	c0-0.6-0.3-1.2-0.8-1.6C8.7,12,7.9,11.8,7.2,11.8z"/>
<path class="st0" d="M7.2,20.5c-2.4,0-4.3-1.6-4.3-3.7v-2.8c0-2.1,1.9-3.9,4.3-3.9c1.1,0,2.2,0.4,3,1.1c0.8,0.7,1.3,1.7,1.3,2.8v2.8
	C11.5,19,9.6,20.5,7.2,20.5z M7.2,11.8c-1.6,0-2.8,1.1-2.8,2.4v2.8c0,1.2,1.2,2.2,2.8,2.2c1.6,0,2.8-0.9,2.8-2.2v-2.8
	c0-0.6-0.3-1.2-0.8-1.6C8.7,12,8,11.8,7.2,11.8z"/>
<path class="st0" d="M19,14.8c-1.5,0-2.8-1.1-2.9-2.6c-0.1-0.8,0.2-1.6,0.8-2.2c0.5-0.5,1.2-0.8,2-0.8H21c1,0,1.8,0.8,1.8,1.8V13
	c0,1-0.8,1.7-1.7,1.8H19z M21,10.7l-2.1,0c-0.3,0-0.7,0.1-0.9,0.4c-0.3,0.3-0.4,0.7-0.4,1c0.1,0.7,0.7,1.2,1.4,1.2h2
	c0.1,0,0.2-0.1,0.2-0.3V11C21.2,10.8,21.1,10.7,21,10.7z"/>
<path class="st0" d="M16,21.2h-2.5c-0.4,0-0.8-0.3-0.8-0.8s0.3-0.8,0.8-0.8H16c2.6,0,4.2-1.7,4.2-4.2v-0.7H19
	c-1.5,0-2.8-1.1-2.9-2.6c-0.1-0.8,0.2-1.6,0.8-2.2c0.5-0.5,1.2-0.8,2-0.8h1.3V8.5c0-2.3-1.4-3.9-3.6-4.2c-0.2,0-0.4,0-0.7,0H7
	c-0.2,0-0.5,0-0.7,0.1C4.1,4.6,2.8,6.2,2.8,8.5v2c0,0.4-0.3,0.8-0.8,0.8s-0.8-0.3-0.8-0.8v-2c0-3.1,1.9-5.3,4.8-5.7
	c0.3,0,0.6-0.1,0.9-0.1h9c0.2,0,0.6,0,0.9,0.1c2.9,0.3,4.9,2.6,4.9,5.7V10c0,0.4-0.3,0.8-0.8,0.8h-2.1c-0.3,0-0.7,0.1-0.9,0.4
	c-0.3,0.3-0.4,0.7-0.4,1c0.1,0.7,0.7,1.2,1.4,1.2h2c0.4,0,0.8,0.3,0.8,0.8v1.5C21.8,18.9,19.4,21.2,16,21.2z"/>
</svg>
